<svg width="650" height="450" viewBox="0 0 750 450" fill="none" xmlns="http://www.w3.org/2000/svg">
<g clip-path="url(#clip0_7_579)">
<path d="M328.291 411.229C437.148 411.229 525.394 417.724 525.394 425.736C525.394 433.748 437.148 440.243 328.291 440.243C219.434 440.243 131.188 433.748 131.188 425.736C131.188 417.724 219.434 411.229 328.291 411.229Z" fill="#BDD1F9"/>
<path d="M452.566 310.269C452.566 310.269 449.266 177.866 675.299 210.071C675.299 210.071 557.907 413.893 452.566 310.269Z" fill="#7C9AF2"/>
<path d="M675.704 209.884L455.026 293.761C462.811 259.407 499.834 184.812 675.704 209.884Z" fill="#91B5F8"/>
<path d="M464.181 290.553C464.119 290.522 464.056 290.429 463.994 290.366C463.932 290.179 464.025 289.93 464.212 289.868L675.579 209.542C675.766 209.479 676.015 209.573 676.077 209.76C676.14 209.947 676.046 210.165 675.859 210.258L464.492 290.553C464.368 290.615 464.274 290.584 464.181 290.553Z" fill="#060633"/>
<path d="M565.194 252.15C565.038 252.056 564.945 251.869 565.038 251.683C565.1 251.496 565.349 251.371 565.536 251.465L624.045 274.295C624.232 274.357 624.357 274.606 624.263 274.793C624.201 274.98 623.952 275.105 623.765 275.011L565.256 252.181C565.225 252.15 565.194 252.15 565.194 252.15Z" fill="#060633"/>
<path d="M519.919 269.343C519.887 269.343 519.887 269.311 519.856 269.311C519.701 269.187 519.669 268.938 519.825 268.782L559.807 221.844C559.931 221.689 560.18 221.658 560.336 221.813C560.492 221.938 560.523 222.187 560.367 222.343L520.386 269.28C520.261 269.405 520.074 269.436 519.919 269.343Z" fill="#060633"/>
<path d="M412.304 333.971C412.304 333.971 468.26 198.454 682.648 332.321C682.648 332.321 472.557 486.059 412.304 333.971Z" fill="#7C9AF2"/>
<path d="M683.177 332.289L422.206 318.336C445.467 287.065 516.338 228.136 683.177 332.289Z" fill="#91B5F8"/>
<path d="M432.887 319.208C432.825 319.145 432.793 319.021 432.793 318.927C432.793 318.678 433.011 318.522 433.229 318.522L683.177 331.884C683.426 331.884 683.582 332.102 683.582 332.32C683.582 332.569 683.364 332.725 683.146 332.725L433.198 319.363C433.074 319.363 432.949 319.301 432.887 319.208Z" fill="#060633"/>
<path d="M552.334 325.593C552.209 325.437 552.209 325.188 552.365 325.032C552.52 324.876 552.801 324.876 552.956 325.032L601.999 374.337C602.155 374.492 602.155 374.773 601.999 374.928C601.844 375.084 601.563 375.084 601.408 374.928L552.396 325.593C552.365 325.624 552.365 325.593 552.334 325.593Z" fill="#060633"/>
<path d="M498.807 322.727C498.776 322.696 498.776 322.665 498.776 322.665C498.682 322.447 498.776 322.198 498.962 322.104L560.461 292.515C560.679 292.422 560.928 292.515 561.021 292.702C561.115 292.92 561.021 293.169 560.834 293.263L499.336 322.852C499.149 322.945 498.931 322.883 498.807 322.727Z" fill="#060633"/>
<path d="M298.466 417.275L370.639 417.275L370.639 348.474L298.466 348.474L298.466 417.275Z" fill="#060633"/>
<path d="M137.535 84.7543H526.506C530.159 84.7543 533.173 87.7309 533.173 91.4234V347.11C533.173 350.765 530.197 353.78 526.506 353.78H137.535C133.881 353.78 130.868 350.803 130.868 347.11V91.3857C130.905 87.7309 133.881 84.7543 137.535 84.7543Z" fill="#0C0C4C"/>
<path d="M522.927 91.8755H141.566V333.508H522.927V91.8755Z" fill="#D4E4FC"/>
<path d="M272.926 426.331L396.18 426.331L396.18 410.543L272.926 410.543L272.926 426.331Z" fill="#0C0C4C"/>
<path d="M203.795 306.342C214.229 292.401 220.671 283.735 222.855 280.834C225.831 276.877 231.557 265.197 237.961 252.198C246.662 234.564 256.682 214.482 262.822 207.888C265.308 205.213 270.13 202.914 275.705 200.993C280.301 199.41 292.129 218.25 337.219 213.54C337.219 213.54 317.744 225.672 316.99 227.669C315.597 231.399 314.579 234.15 314.316 235.28C314.24 235.506 314.24 235.695 314.24 235.77C314.278 236.26 314.354 236.75 314.391 237.24C314.58 239.086 314.768 240.857 314.919 242.515C314.919 242.59 314.919 242.628 314.919 242.703C314.994 243.532 315.069 244.323 315.145 245.077C315.145 245.227 315.182 245.34 315.182 245.491C315.484 248.694 315.71 251.181 315.86 252.688C315.86 252.801 315.898 252.914 315.898 253.027C315.973 253.781 316.011 254.195 316.011 254.195C316.011 254.195 320.23 253.178 323.884 254.836C325.051 255.325 326.106 256.117 327.01 257.247C327.236 257.548 327.462 257.887 327.688 258.227C327.877 258.566 328.555 260.073 329.383 262.183C329.383 262.221 329.421 262.258 329.421 262.296C331.945 268.588 332.548 279.138 331.154 280.118C331.154 280.118 329.459 282.642 328.743 283.321C326.521 285.468 319.213 292.891 300.303 298.769C298.193 299.409 296.272 300.389 294.314 301.067C278.907 306.531 281.092 308.075 270.959 317.382C270.77 317.57 270.394 318.173 269.829 319.153C268.397 321.715 265.873 326.839 262.446 333.622H183.416C191.326 322.958 198.145 313.878 203.795 306.342Z" fill="#F09684"/>
<path d="M263.802 272.695C262.182 273.11 261.127 273.072 261.052 273.072L261.09 272.469C261.127 272.469 265.421 272.544 270.168 268.814C274.575 265.348 280.263 257.812 282.486 241.497L283.088 241.573C281.845 250.691 278.643 262.899 270.507 269.304C267.908 271.301 265.534 272.243 263.802 272.695Z" fill="#D97D6B"/>
<path d="M292.618 158.906C290.66 159.32 288.061 156.532 288.061 156.532C289.341 152.877 290.66 149.109 292.016 145.454C293.259 145.869 294.879 146.736 295.331 148.393C296.084 151.219 294.615 158.491 292.618 158.906Z" fill="#F3B2A3"/>
<path d="M170.458 333.509C185.977 311.617 200.329 292.1 201.949 292.853C203.531 293.569 204.925 294.36 206.281 295.189C208.391 296.47 210.274 297.902 212.007 299.372C222.968 308.904 226.811 321.301 245.608 323.938C254.874 325.257 261.994 327.932 266.74 331.474C267.079 331.738 267.418 331.964 267.719 332.265C268.209 332.68 268.661 333.056 269.038 333.471H170.458V333.509Z" fill="#3862BF"/>
<path d="M305.388 285.091C297.44 285.996 290.358 280.984 289.567 273.939L277.739 169.757C276.948 162.711 282.712 156.231 290.66 155.326C298.608 154.422 305.69 159.433 306.481 166.479L318.309 270.661C319.1 277.744 313.299 284.187 305.388 285.091Z" fill="#060633"/>
<path d="M402.311 1.97437L235.738 129.667L225.831 150.466L244.364 167.873L456.14 180.232L402.311 1.97437Z" fill="#FA7267"/>
<path d="M427.715 181.885C453.948 174.122 464.19 130.559 450.592 84.5852C436.993 38.6111 404.704 7.635 378.471 15.3982C352.238 23.1615 341.996 66.7243 355.594 112.698C369.193 158.673 401.482 189.649 427.715 181.885Z" fill="#3862BF"/>
<path d="M235.738 129.667L206.13 144.701C206.13 144.701 200.405 145.191 204.435 161.016C208.466 176.841 213.89 170.285 244.402 167.911C244.364 167.873 223.835 151.86 235.738 129.667Z" fill="#0C0755"/>
<path d="M422.652 182.907L459.153 180.081L408.036 -1.19067L373.004 17.6863L387.017 124.091L422.652 182.907Z" fill="#3862BF"/>
<path d="M464.012 179.122C490.245 171.358 499.516 124.512 484.72 74.487C469.923 24.4622 436.662 -9.79762 410.429 -2.03437C384.196 5.72887 374.925 52.5753 389.722 102.6C404.518 152.625 437.779 186.885 464.012 179.122Z" fill="#5D80D6"/>
<path d="M461.838 168.167C484.44 161.478 492.179 120.274 479.124 76.1361C466.068 31.9977 437.162 1.63883 414.56 8.32761C391.958 15.0164 384.219 56.2199 397.274 100.358C410.33 144.497 439.236 174.856 461.838 168.167Z" fill="#0C0755"/>
<path d="M418.132 64.5585L461.451 70.3233L467.214 97.1882L428.867 122.282C424.874 125.522 419.299 124.995 415.872 121.114C407.735 111.883 396.397 93.345 408.3 69.9842C410.296 66.1787 414.176 64.031 418.132 64.5585Z" fill="#FA7267"/>
<path d="M470.002 83.1341C471.358 90.8959 469.776 97.7157 466.499 98.3939C463.184 99.0722 459.417 93.345 458.061 85.5832C456.705 77.8214 458.287 71.0016 461.564 70.3234C464.841 69.6452 468.646 75.41 470.002 83.1341Z" fill="#F09684"/>
<path d="M351.231 236.674L351.608 233.66C352.399 227.782 344.451 223.675 333.941 222.846L308.326 220.887C297.553 220.058 291.639 222.131 289.492 227.82C289.115 228.837 288.927 230.344 288.965 231.475C289.266 237.466 293.56 241.573 304.334 242.402L331.041 244.625C341.588 245.491 350.478 242.552 351.231 236.674Z" fill="#F1A38D"/>
<path d="M346.824 257.963L347.314 254.911C348.18 249.448 340.722 245.341 330.74 244.173L304.296 241.083C294.012 239.877 286.215 241.837 284.218 247.225C283.842 248.242 283.653 249.485 283.729 250.653C284.03 256.305 290.773 260.224 301.019 261.392L327.462 264.481C337.445 265.649 345.92 263.426 346.824 257.963Z" fill="#F1A38D"/>
<path d="M341.061 273.298L341.023 270.962C340.948 266.403 334.356 263.162 326.182 262.56L309.381 261.881C302.827 261.542 294.464 261.957 293.824 267.835C293.071 274.956 304.296 277.97 308.138 278.083L326.445 279.477C334.657 280.08 341.136 277.857 341.061 273.298Z" fill="#F1A38D"/>
<path d="M292.392 230.081C292.807 225.409 296.687 224.354 300.717 224.768L305.803 225.295C307.724 225.484 309.08 226.953 308.816 228.536L307.874 234.225C307.573 235.996 305.614 237.24 303.467 237.014L297.666 236.411C294.238 236.072 292.204 232.153 292.392 230.081Z" fill="#F3B2A3"/>
<path d="M346.033 217.383C346.109 216.856 346.41 213.389 346.41 213.389C346.749 208.415 340.119 205.816 331.832 205.627L313.336 205.25C304.861 205.062 299.587 205.024 297.704 209.96C297.214 211.279 297.101 214.067 297.327 215.537C298.344 221.829 304.673 222.357 313.148 222.545L330.514 224.09C338.801 224.278 345.393 222.319 346.033 217.383Z" fill="#F1A38D"/>
<path d="M287.119 250.314V249.937C287.119 246.584 289.982 244.097 293.447 244.436L298.005 244.888C299.663 245.039 301.019 246.509 301.019 248.091V253.63C301.019 255.401 299.512 256.719 297.666 256.531L292.505 256.004C289.53 255.777 287.081 253.178 287.119 250.314Z" fill="#F3B2A3"/>
<path d="M297.327 268.211V268.324C297.101 271.037 298.872 273.449 301.245 273.675L305.351 274.089C306.481 274.202 307.498 273.223 307.611 271.942L307.95 267.646C308.063 266.214 307.121 264.933 305.878 264.82L301.358 264.368C299.324 264.142 297.515 265.875 297.327 268.211Z" fill="#F3B2A3"/>
<path d="M298.759 213.615L298.834 212.786C299.135 209.923 301.923 207.662 305.087 207.775L308.665 207.926C310.172 208.001 311.302 209.169 311.152 210.525L310.624 215.763C310.474 217.27 308.967 218.476 307.309 218.4L303.166 218.25C300.529 218.174 298.533 216.064 298.759 213.615Z" fill="#F3B2A3"/>
<path d="M334.695 244.964C334.657 244.964 334.657 244.964 334.619 244.964L296.536 241.083C296.423 241.083 296.385 240.97 296.385 240.894C296.385 240.781 296.498 240.744 296.574 240.744L334.657 244.625C334.77 244.625 334.808 244.738 334.808 244.813C334.808 244.888 334.77 244.926 334.695 244.964Z" fill="#D97D6B"/>
<path d="M338.047 223.562H338.01L301.094 220.925C300.981 220.925 300.943 220.849 300.943 220.736C300.943 220.623 301.019 220.586 301.132 220.586L338.047 223.223C338.16 223.223 338.198 223.299 338.198 223.412C338.16 223.487 338.085 223.525 338.047 223.562Z" fill="#D97D6B"/>
<path d="M335.41 264.858C335.41 264.858 335.373 264.858 335.335 264.858L304.258 262.032C304.145 262.032 304.108 261.957 304.108 261.844C304.108 261.731 304.183 261.693 304.296 261.693L335.373 264.519C335.486 264.519 335.523 264.594 335.523 264.707C335.523 264.783 335.448 264.82 335.41 264.858Z" fill="#D97D6B"/>
<path d="M244.063 239.877C244.063 239.877 266.099 172.093 301.395 182.229C306.217 183.623 314.655 182.53 323.808 181.136C327.613 180.533 331.568 179.893 335.41 179.365C335.938 179.29 336.465 179.215 336.993 179.139C343.585 178.235 344.037 199.636 314.165 201.257C307.121 201.633 289.153 205.401 281.845 222.357C277.212 233.17 251.974 256.079 244.063 239.877Z" fill="#F09684"/>
<path d="M481.233 271.277C481.552 248.93 464.205 230.564 442.487 230.256C420.77 229.948 402.907 247.815 402.588 270.161C402.27 292.508 419.617 310.874 441.334 311.182C463.052 311.49 480.915 293.624 481.233 271.277Z" fill="#ED7066"/>
<path d="M428.076 280.834C428.039 285.129 429.997 289.198 433.915 291.685C435.459 292.702 437.381 293.456 439.528 293.833L439.415 301.708L444.048 301.783L444.161 294.134C448.418 294.134 452.825 292.853 455.462 290.969L455.386 290.781L453.767 285.845C451.13 287.616 447.25 289.048 443.144 288.935C437.908 288.859 434.442 285.694 434.518 281.399C434.555 277.216 437.456 274.73 442.918 272.544C448.568 270.359 452.636 267.872 454.332 264.029C454.407 263.841 454.482 263.69 454.52 263.501C454.972 262.371 455.236 261.09 455.236 259.621C455.349 253.328 451.054 248.505 444.312 247.3L444.349 243.456L444.425 239.613L440.808 239.538H439.829L439.754 246.885C435.309 246.961 432.295 248.129 430.148 249.372L431.881 254.421C433.425 253.517 436.476 251.896 441.223 251.972C446.873 252.047 448.945 255.589 448.907 258.603C448.87 260.299 448.342 261.58 447.25 262.786C447.137 262.936 447.024 263.049 446.873 263.162C445.404 264.519 443.031 265.687 439.678 267.119C432.032 270.246 428.189 274.089 428.076 280.834Z" fill="white"/>
<path d="M547.192 347.782C547.429 331.198 534.568 317.57 518.468 317.341C502.367 317.113 489.123 330.371 488.886 346.954C488.65 363.538 501.51 377.166 517.611 377.395C533.712 377.623 546.956 364.365 547.192 347.782Z" fill="#ED7066"/>
<path d="M507.784 354.872C507.746 358.037 509.215 361.089 512.116 362.898C513.284 363.651 514.677 364.216 516.26 364.518L516.184 370.358L519.612 370.396L519.687 364.706C522.852 364.706 526.129 363.764 528.05 362.37L528.012 362.219L526.807 358.565C524.848 359.883 521.985 360.938 518.934 360.863C515.054 360.825 512.455 358.489 512.53 355.287C512.568 352.197 514.715 350.351 518.783 348.693C522.965 347.073 525.978 345.226 527.259 342.363C527.297 342.212 527.372 342.099 527.41 341.986C527.749 341.157 527.937 340.177 527.937 339.122C528.012 334.45 524.848 330.871 519.838 330.004L519.876 327.178L519.913 324.352L517.239 324.315H516.523L516.486 329.778C513.208 329.816 510.948 330.72 509.366 331.624L510.647 335.355C511.815 334.676 514.037 333.471 517.578 333.508C521.759 333.546 523.304 336.183 523.266 338.444C523.228 339.725 522.852 340.667 522.023 341.534C521.948 341.647 521.872 341.722 521.759 341.798C520.667 342.815 518.934 343.682 516.41 344.737C510.722 346.997 507.859 349.861 507.784 354.872Z" fill="white"/>
</g>
<defs>
<clipPath id="clip0_7_579">
<rect width="819" height="472" fill="white" transform="translate(-15)"/>
</clipPath>
</defs>
</svg>
