<svg width="65" height="65" viewBox="0 0 65 65" fill="none" xmlns="http://www.w3.org/2000/svg">
<path d="M16.6273 0C17.5588 0 18.4887 0 19.4201 0C19.5807 0.0397456 19.7412 0.100159 19.905 0.116057C21.8569 0.305246 23.7739 0.72814 25.4859 1.66614C26.9228 2.4531 28.2899 2.63434 29.9255 2.45946C35.9801 1.8124 41.7343 2.98092 47.1753 5.73132C59.1494 11.7854 65.7985 25.2146 63.2982 38.3943C63.1599 39.1256 63.2584 39.7266 63.5398 40.3943C65.4759 44.9873 65.5045 49.6264 63.5414 54.194C59.5468 63.4928 48.3802 67.6328 39.2721 63.2417C38.7014 62.9666 38.1689 62.9078 37.5665 63.0095C34.4319 63.5374 31.2846 63.5342 28.1547 63.0493C21.6185 62.0382 15.8707 59.318 11.1688 54.6486C3.54846 47.0843 0.634813 37.9396 2.34358 27.3243C2.40399 26.9459 2.28636 26.5072 2.14966 26.1335C1.62192 24.69 1.00041 23.2798 0.521954 21.8219C0.242193 20.9714 0.169074 20.0541 0.00217056 19.1669C0.00217056 18.2782 0.00217056 17.3895 0.00217056 16.5008C0.0403198 16.275 0.0705213 16.0493 0.116618 15.8267C0.364589 14.6534 0.496522 13.4388 0.889141 12.3164C3.06524 6.08903 7.39836 2.16693 13.7756 0.518283C14.7087 0.27663 15.6752 0.168521 16.6273 0ZM32.0428 11.3291C31.3958 11.3752 30.191 11.4308 28.9924 11.5517C25.9532 11.8585 23.0777 12.6709 20.4327 14.2655C14.1015 18.0843 13.4752 27.3879 20.1323 31.6089C22.1939 32.9157 24.4368 33.7663 26.7687 34.3831C29.8715 35.2035 33.0013 35.9126 36.1152 36.6868C37.3567 36.9952 38.5107 37.5135 39.5137 38.3243C41.4068 39.8553 41.6342 42.593 39.8999 44.3052C39.1799 45.0159 38.2802 45.6232 37.3535 46.0286C35.171 46.9825 32.8407 47.0588 30.5041 46.7822C27.956 46.4801 25.9469 45.3052 24.6816 43.0127C24.2524 42.2369 23.8836 41.4277 23.4544 40.6534C23.1477 40.1017 22.8345 39.5405 22.4387 39.0541C21.2577 37.6041 19.6808 37.2353 17.926 37.6232C16.2697 37.9889 15.1125 38.9873 14.6976 40.6661C14.3765 41.9634 14.6642 43.248 15.1538 44.4499C16.4874 47.7234 18.8304 50.0843 21.9587 51.6693C24.6641 53.0413 27.5841 53.5962 30.582 53.7568C34.9326 53.9905 39.199 53.6184 43.2348 51.7949C48.4199 49.4531 51.1937 45.0477 50.8663 39.6455C50.6994 36.8855 49.6471 34.5342 47.5536 32.6836C45.9085 31.2305 43.9915 30.2178 41.9171 29.6105C38.3931 28.5819 34.8261 27.6979 31.2671 26.7933C29.5408 26.3545 27.8368 25.9014 26.3204 24.9126C24.4225 23.6757 24.184 21.4611 25.8849 20.0016C26.527 19.4499 27.3123 19.0048 28.1055 18.6979C30.0431 17.9491 32.0762 17.9921 34.1124 18.1797C36.3171 18.3816 37.9543 19.4849 39.1576 21.2925C39.7426 22.1717 40.2814 23.0827 40.8807 23.9523C42.2239 25.8983 44.6241 26.4467 46.6985 25.3084C48.6632 24.2305 49.4166 22.0843 48.6647 19.717C47.8127 17.0382 45.9244 15.2401 43.5861 13.8728C40.194 11.8935 36.4506 11.3498 32.0428 11.3291Z" fill="white"/>
</svg>
