<svg width="75" height="63" viewBox="0 0 75 63" fill="none" xmlns="http://www.w3.org/2000/svg">
<path d="M74.9999 4.89275C74.5637 6.87735 74.1139 8.858 73.6933 10.8465C70.4856 25.9835 67.2857 41.1205 64.08 56.2574C63.8413 57.3859 63.6242 58.5222 63.3328 59.6387C62.2512 63.7914 59.2488 63.5409 56.9193 61.8561C52.1234 58.388 47.3881 54.8371 42.6274 51.3196C41.9193 50.7968 41.1898 50.2997 40.5091 49.7414C40.1218 49.4238 39.8871 49.4633 39.537 49.8045C36.7811 52.4855 34.0017 55.1448 31.236 57.8179C30.4126 58.6129 29.4777 59.1022 28.2259 59.0548C28.2982 57.9698 28.3647 56.9223 28.4391 55.8747C28.7638 51.2861 29.0787 46.6975 29.4346 42.1128C29.462 41.7498 29.6811 41.3158 29.951 41.0711C40.2998 31.669 50.6643 22.2826 61.0268 12.8962C61.1539 12.7818 61.3241 12.6891 61.3984 12.5451C61.5646 12.2215 61.684 11.8724 61.8209 11.535C61.4629 11.4403 61.0757 11.2075 60.7568 11.2825C60.1779 11.4186 59.5989 11.6692 59.0924 11.9888C46.1911 20.1126 33.2976 28.2482 20.412 36.3997C19.9308 36.7054 19.5318 36.7409 19.0017 36.5733C13.6132 34.8629 8.21284 33.19 2.82622 31.4697C2.12013 31.2448 1.41795 30.8976 0.819436 30.4597C-0.164395 29.7396 -0.289575 28.702 0.586681 27.8734C1.31624 27.1849 2.19445 26.5595 3.11961 26.1906C8.48667 24.0502 13.8831 21.9906 19.2736 19.9094C36.1024 13.4111 52.9292 6.91286 69.7619 0.42643C70.3018 0.219291 70.8827 0.0575246 71.4538 0.0160967C73.2239 -0.114105 74.3799 0.761799 74.8415 2.49191C74.8845 2.65565 74.9471 2.81544 74.9999 2.97721C74.9999 3.61243 74.9999 4.25358 74.9999 4.89275Z" fill="white"/>
</svg>
