<svg width="550" height="450" viewBox="0 0 450 450" fill="none" xmlns="http://www.w3.org/2000/svg">
<path d="M76.2884 470.345H76.1045C74.9393 470.345 74.0194 468.552 74.0807 466.4L77.2083 211.434L86.3458 209.426L78.5575 466.4C78.4348 468.624 77.4536 470.345 76.2884 470.345Z" fill="#AEC3FF"/>
<path d="M439.824 470.345H440.008C441.173 470.345 442.093 468.552 442.032 466.4L438.904 211.434L429.767 209.426L437.555 466.4C437.678 468.624 438.659 470.345 439.824 470.345Z" fill="#AEC3FF"/>
<path d="M57.8909 216.169H444.546C447.306 216.169 449.575 213.515 449.575 210.287V206.699C449.575 203.471 447.306 200.817 444.546 200.817H57.8909C55.1313 200.817 52.8623 203.471 52.8623 206.699V210.287C52.8623 213.515 55.1313 216.169 57.8909 216.169Z" fill="#AEC3FF"/>
<path d="M152.025 87.467L144.359 194.217C144.359 194.217 143.562 200.673 147.671 200.673C154.417 200.673 181.339 200.673 181.339 200.673C181.339 200.673 176.249 199.31 176.31 196.297C176.371 192.71 185.263 86.4626 185.263 86.4626L152.025 87.467Z" fill="#D86713"/>
<path d="M183.546 198.808C182.197 198.808 156.502 198.88 149.94 198.808C147.058 198.736 146.567 195.795 146.567 193.93C146.567 192.997 146.628 192.351 146.628 192.351L146.812 189.554L147.303 182.451L147.732 176.21L148.284 168.175L148.775 161.431L154.233 85.6018L187.471 84.5974C187.471 84.5974 183.73 129.076 181.093 161.431C180.787 165.018 180.541 168.534 180.235 171.762C180.173 172.766 180.051 173.771 179.989 174.775C179.744 177.86 179.499 180.658 179.315 183.169C179.192 184.46 179.131 185.68 179.008 186.827C178.64 191.204 178.456 194.002 178.456 194.504C178.456 194.791 178.456 195.078 178.517 195.365C179.131 198.665 182.994 198.808 183.546 198.808Z" fill="#EE9849"/>
<path d="M71.2599 29.3575L89.9641 117.239L92.5397 129.292L101.248 170.184H263.024L230.889 29.3575H71.2599Z" fill="#F1A34F"/>
<path d="M71.2599 29.3575L68.6842 30.4336L97.8137 173.269L101.248 170.184L71.2599 29.3575Z" fill="#EE9849"/>
<path d="M97.8136 173.269H258.547L263.024 170.184H101.248L97.8136 173.269Z" fill="#D86713"/>
<path d="M154.251 200.776H189.084V198.84H154.251V200.776Z" fill="#F1A34F"/>
<path d="M255.174 144.214L228.927 31.2227H71.0146V29.3575H230.889L257.075 143.999L255.174 144.214Z" fill="#F1A34F"/>
<path d="M180.235 173.269L180.051 174.703L147.303 182.451L147.732 176.21L147.978 173.269H180.235Z" fill="#D86713"/>
<path opacity="0.4" d="M183.546 198.808C182.197 198.808 156.502 198.88 149.94 198.808C147.058 198.737 146.567 195.795 146.567 193.93L179.131 186.756C178.763 191.132 178.579 193.93 178.579 194.432C178.579 194.719 178.579 195.006 178.64 195.293C179.131 198.665 182.994 198.808 183.546 198.808Z" fill="#D86713"/>
<path opacity="0.4" d="M172.324 141.703L101.248 170.184L92.5397 129.292L172.324 141.703Z" fill="#D86713"/>
<path d="M71.2599 29.3575H230.889L256.83 142.564H94.5635L71.2599 29.3575Z" fill="#AEC3FF"/>
<path d="M249.287 137.614H99.8374L82.9117 58.771L81.6239 52.7448L80.52 47.5795L77.883 35.4554H225.186L228.068 47.5795L229.295 52.7448L230.705 58.771L249.287 137.614Z" fill="#8DB0FF"/>
<path d="M100.144 45.6423L90.148 45.7858L89.9641 44.7814L99.8987 44.6379L100.144 45.6423Z" fill="#F9DDBF"/>
<path d="M97.9363 48.4403L90.7612 48.5121L90.5773 47.5077L97.691 47.3642L97.9363 48.4403Z" fill="#F9DDBF"/>
<path d="M106.154 48.2968L98.9788 48.3685L98.7949 47.3641L105.97 47.2924L106.154 48.2968Z" fill="#F9DDBF"/>
<path d="M112.102 48.1533L107.687 48.225L107.442 47.2206L111.918 47.1489L112.102 48.1533Z" fill="#F9DDBF"/>
<path d="M108.116 45.499L101.984 45.5707L101.738 44.5664L107.932 44.4946L108.116 45.499Z" fill="#F9DDBF"/>
<path d="M116.518 45.3555L110.385 45.4272L110.14 44.4228L116.273 44.3511L116.518 45.3555Z" fill="#F9DDBF"/>
<path d="M210.836 40.9793L204.09 41.0511L203.968 40.4054L210.652 40.2619L210.836 40.9793Z" fill="#F9DDBF"/>
<path d="M209.364 42.8445L204.519 42.9163L204.335 42.2706L209.18 42.1989L209.364 42.8445Z" fill="#F9DDBF"/>
<path d="M214.883 42.7727L210.039 42.8445L209.916 42.1271L214.761 42.0553L214.883 42.7727Z" fill="#F9DDBF"/>
<path d="M218.931 42.7011L215.926 42.7728L215.742 42.0554L218.747 41.9837L218.931 42.7011Z" fill="#F9DDBF"/>
<path d="M216.232 40.9075L212.062 40.9792L211.94 40.2618L216.049 40.1901L216.232 40.9075Z" fill="#F9DDBF"/>
<path d="M221.874 40.7641L217.704 40.8358L217.582 40.1901L221.752 40.1184L221.874 40.7641Z" fill="#F9DDBF"/>
<path d="M228.743 130.655L222.058 130.727L221.874 130.081L228.62 129.938L228.743 130.655Z" fill="#F9DDBF"/>
<path d="M227.271 132.52L222.426 132.592L222.304 131.874L227.087 131.803L227.271 132.52Z" fill="#F9DDBF"/>
<path d="M232.79 132.448L228.007 132.52L227.823 131.803L232.668 131.731L232.79 132.448Z" fill="#F9DDBF"/>
<path d="M236.838 132.377H233.833L233.71 131.731L236.654 131.659L236.838 132.377Z" fill="#F9DDBF"/>
<path d="M234.14 130.511L229.969 130.583L229.847 129.938L234.017 129.866L234.14 130.511Z" fill="#F9DDBF"/>
<path d="M239.781 130.44L235.673 130.511L235.489 129.794H239.659L239.781 130.44Z" fill="#F9DDBF"/>
<path d="M100.512 54.5382L92.1105 54.6817L91.9265 53.6774L100.328 53.5339L100.512 54.5382Z" fill="#F9DDBF"/>
<path d="M106.767 54.4666L102.045 54.5383L101.861 53.534L106.522 53.4622L106.767 54.4666Z" fill="#F9DDBF"/>
<path d="M116.089 54.3231L108.914 54.3948L108.668 53.3904L115.905 53.3187L116.089 54.3231Z" fill="#F9DDBF"/>
<path d="M102.658 57.1927L92.7237 57.3362L92.4784 56.3318L102.474 56.1884L102.658 57.1927Z" fill="#F9DDBF"/>
<path d="M100.451 59.9905L93.337 60.134L93.0916 59.1296L100.267 58.9861L100.451 59.9905Z" fill="#F9DDBF"/>
<path d="M108.668 59.847L101.555 59.9904L101.309 58.9861L108.484 58.8426L108.668 59.847Z" fill="#F9DDBF"/>
<path d="M114.678 59.7753L110.201 59.847L110.017 58.8427L114.433 58.7709L114.678 59.7753Z" fill="#F9DDBF"/>
<path d="M110.692 57.0492L104.498 57.1927L104.314 56.1883L110.447 56.0449L110.692 57.0492Z" fill="#F9DDBF"/>
<path d="M119.032 56.9057L112.9 57.0492L112.716 56.0448L118.848 55.9013L119.032 56.9057Z" fill="#F9DDBF"/>
<path d="M103.333 67.2364L94.87 67.3799L94.686 66.3755L103.088 66.2321L103.333 67.2364Z" fill="#F9DDBF"/>
<path d="M109.527 67.1646L104.866 67.2363L104.621 66.232L109.343 66.1602L109.527 67.1646Z" fill="#F9DDBF"/>
<path d="M118.91 67.0212L111.673 67.0929L111.428 66.0885L118.664 65.9451L118.91 67.0212Z" fill="#F9DDBF"/>
<path d="M105.418 69.8908L95.4832 70.0343L95.2379 69.03L105.234 68.8865L105.418 69.8908Z" fill="#F9DDBF"/>
<path d="M103.271 72.6886L96.0965 72.8321L95.8511 71.756L103.026 71.6843L103.271 72.6886Z" fill="#F9DDBF"/>
<path d="M111.489 72.5451L104.314 72.6886L104.069 71.6843L111.244 71.5408L111.489 72.5451Z" fill="#F9DDBF"/>
<path d="M117.438 72.4734L112.961 72.5451L112.777 71.5408L117.192 71.3973L117.438 72.4734Z" fill="#F9DDBF"/>
<path d="M113.451 69.7473L107.319 69.8908L107.074 68.8147L113.206 68.743L113.451 69.7473Z" fill="#F9DDBF"/>
<path d="M121.853 69.6039L115.659 69.7473L115.475 68.6712L121.608 68.5995L121.853 69.6039Z" fill="#F9DDBF"/>
<path d="M105.97 79.3605L97.5684 79.504L97.3231 78.4996L105.725 78.3561L105.97 79.3605Z" fill="#F9DDBF"/>
<path d="M112.225 79.2889L107.503 79.3606L107.258 78.3562L111.98 78.2845L112.225 79.2889Z" fill="#F9DDBF"/>
<path d="M121.546 79.1454L114.31 79.2171L114.126 78.2127L121.301 78.141L121.546 79.1454Z" fill="#F9DDBF"/>
<path d="M108.116 82.015L98.1202 82.1585L97.9363 81.1541L107.871 81.0106L108.116 82.015Z" fill="#F9DDBF"/>
<path d="M105.909 84.8128L98.7335 84.9563L98.5495 83.9519L105.663 83.8084L105.909 84.8128Z" fill="#F9DDBF"/>
<path d="M114.126 84.6692L106.951 84.8127L106.767 83.8083L113.881 83.6649L114.126 84.6692Z" fill="#F9DDBF"/>
<path d="M120.075 84.5976L115.659 84.6693L115.414 83.6649L119.891 83.5932L120.075 84.5976Z" fill="#F9DDBF"/>
<path d="M116.089 81.8714L109.956 82.0149L109.711 81.0105L115.905 80.8671L116.089 81.8714Z" fill="#F9DDBF"/>
<path d="M124.49 81.7279L118.358 81.8714L118.112 80.8671L124.245 80.7236L124.49 81.7279Z" fill="#F9DDBF"/>
<path d="M108.73 91.8434L100.267 91.9869L100.083 90.9825L108.484 90.8391L108.73 91.8434Z" fill="#F9DDBF"/>
<path d="M114.924 91.7716L110.201 91.8433L110.017 90.839L114.678 90.6955L114.924 91.7716Z" fill="#F9DDBF"/>
<path d="M124.245 91.5564L117.07 91.6999L116.825 90.6955L124.061 90.552L124.245 91.5564Z" fill="#F9DDBF"/>
<path d="M110.815 94.4976L100.88 94.6411L100.635 93.6368L110.631 93.4933L110.815 94.4976Z" fill="#F9DDBF"/>
<path d="M108.607 97.2956L101.493 97.3673L101.248 96.3629L108.423 96.2912L108.607 97.2956Z" fill="#F9DDBF"/>
<path d="M116.886 97.1521L109.711 97.2239L109.465 96.2195L116.641 96.1478L116.886 97.1521Z" fill="#F9DDBF"/>
<path d="M122.834 97.0086L118.358 97.0804L118.174 96.076L122.589 96.0043L122.834 97.0086Z" fill="#F9DDBF"/>
<path d="M118.848 94.3543L112.654 94.426L112.47 93.4216L118.603 93.3499L118.848 94.3543Z" fill="#F9DDBF"/>
<path d="M127.25 94.2109L121.056 94.2826L120.872 93.2782L127.004 93.2065L127.25 94.2109Z" fill="#F9DDBF"/>
<path d="M111.918 107.196L103.517 107.339L103.271 106.335L111.673 106.191L111.918 107.196Z" fill="#F9DDBF"/>
<path d="M118.174 107.124L113.451 107.196L113.206 106.191L117.928 106.12L118.174 107.124Z" fill="#F9DDBF"/>
<path d="M127.495 106.981L120.259 107.052L120.075 106.048L127.25 105.976L127.495 106.981Z" fill="#F9DDBF"/>
<path d="M114.065 109.85L104.069 109.994L103.885 108.989L113.819 108.846L114.065 109.85Z" fill="#F9DDBF"/>
<path d="M111.857 112.648L104.682 112.792L104.498 111.715L111.612 111.644L111.857 112.648Z" fill="#F9DDBF"/>
<path d="M120.075 112.505L112.899 112.648L112.715 111.644L119.829 111.5L120.075 112.505Z" fill="#F9DDBF"/>
<path d="M126.023 112.433L121.608 112.505L121.362 111.5L125.839 111.429L126.023 112.433Z" fill="#F9DDBF"/>
<path d="M122.037 109.707L115.904 109.85L115.659 108.774L121.853 108.702L122.037 109.707Z" fill="#F9DDBF"/>
<path d="M130.438 109.563L124.306 109.707L124.061 108.702L130.193 108.559L130.438 109.563Z" fill="#F9DDBF"/>
<path d="M115.169 121.615L106.706 121.759L106.522 120.755L114.923 120.611L115.169 121.615Z" fill="#F9DDBF"/>
<path d="M121.363 121.472L116.702 121.544L116.457 120.539L121.179 120.468L121.363 121.472Z" fill="#F9DDBF"/>
<path d="M130.684 121.329L123.509 121.472L123.264 120.468L130.5 120.324L130.684 121.329Z" fill="#F9DDBF"/>
<path d="M117.254 124.198L107.319 124.413L107.074 123.409L117.07 123.194L117.254 124.198Z" fill="#F9DDBF"/>
<path d="M115.107 126.996L107.932 127.139L107.687 126.135L114.862 125.992L115.107 126.996Z" fill="#F9DDBF"/>
<path d="M123.325 126.924L116.15 126.996L115.905 125.992L123.08 125.848L123.325 126.924Z" fill="#F9DDBF"/>
<path d="M129.273 126.781L124.797 126.852L124.613 125.848L129.028 125.776L129.273 126.781Z" fill="#F9DDBF"/>
<path d="M125.287 124.126L119.093 124.198L118.909 123.194L125.042 123.122L125.287 124.126Z" fill="#F9DDBF"/>
<path d="M133.689 123.983L127.495 124.055L127.311 123.05L133.444 122.978L133.689 123.983Z" fill="#F9DDBF"/>
<path d="M139.453 45.6423L129.457 45.7858L129.273 44.7814L139.208 44.6379L139.453 45.6423Z" fill="#F9DDBF"/>
<path d="M137.246 48.4403L130.071 48.5121L129.887 47.5077L137 47.3642L137.246 48.4403Z" fill="#F9DDBF"/>
<path d="M145.463 48.2968L138.288 48.3685L138.104 47.3641L145.279 47.2924L145.463 48.2968Z" fill="#F9DDBF"/>
<path d="M151.412 48.1533L146.996 48.225L146.751 47.2206L151.228 47.1489L151.412 48.1533Z" fill="#F9DDBF"/>
<path d="M147.426 45.499L141.293 45.5707L141.048 44.5664L147.242 44.4946L147.426 45.499Z" fill="#F9DDBF"/>
<path d="M155.827 45.3555L149.695 45.4272L149.449 44.4228L155.582 44.3511L155.827 45.3555Z" fill="#F9DDBF"/>
<path d="M139.821 54.5382L131.42 54.6817L131.236 53.6774L139.637 53.5339L139.821 54.5382Z" fill="#F9DDBF"/>
<path d="M146.077 54.4666L141.355 54.5383L141.171 53.534L145.831 53.4622L146.077 54.4666Z" fill="#F9DDBF"/>
<path d="M155.398 54.3231L148.223 54.3948L147.978 53.3904L155.214 53.3187L155.398 54.3231Z" fill="#F9DDBF"/>
<path d="M141.968 57.1927L132.033 57.3362L131.788 56.3318L141.784 56.1884L141.968 57.1927Z" fill="#F9DDBF"/>
<path d="M139.76 59.9905L132.646 60.134L132.401 59.1296L139.576 58.9861L139.76 59.9905Z" fill="#F9DDBF"/>
<path d="M148.039 59.847L140.864 59.9904L140.619 58.9861L147.794 58.8426L148.039 59.847Z" fill="#F9DDBF"/>
<path d="M153.988 59.7753L149.511 59.847L149.327 58.8427L153.742 58.7709L153.988 59.7753Z" fill="#F9DDBF"/>
<path d="M150.001 57.0492L143.808 57.1927L143.624 56.1883L149.756 56.0449L150.001 57.0492Z" fill="#F9DDBF"/>
<path d="M158.342 56.9057L152.209 57.0492L152.025 56.0448L158.158 55.9013L158.342 56.9057Z" fill="#F9DDBF"/>
<path d="M142.642 67.2364L134.241 67.3799L133.996 66.3755L142.397 66.2321L142.642 67.2364Z" fill="#F9DDBF"/>
<path d="M148.836 67.1646L144.176 67.2363L143.93 66.232L148.652 66.1602L148.836 67.1646Z" fill="#F9DDBF"/>
<path d="M158.219 67.0212L150.983 67.0929L150.737 66.0885L157.974 65.9451L158.219 67.0212Z" fill="#F9DDBF"/>
<path d="M144.789 69.8908L134.793 70.0343L134.547 69.03L144.543 68.8865L144.789 69.8908Z" fill="#F9DDBF"/>
<path d="M142.581 72.6886L135.406 72.8321L135.161 71.756L142.336 71.6843L142.581 72.6886Z" fill="#F9DDBF"/>
<path d="M150.799 72.5451L143.623 72.6886L143.378 71.6843L150.553 71.5408L150.799 72.5451Z" fill="#F9DDBF"/>
<path d="M156.747 72.4734L152.332 72.5451L152.086 71.5408L156.502 71.3973L156.747 72.4734Z" fill="#F9DDBF"/>
<path d="M152.761 69.7473L146.628 69.8908L146.383 68.8147L152.516 68.743L152.761 69.7473Z" fill="#F9DDBF"/>
<path d="M161.162 69.6039L155.03 69.7473L154.785 68.6712L160.917 68.5995L161.162 69.6039Z" fill="#F9DDBF"/>
<path d="M145.279 79.3605L136.878 79.504L136.633 78.4996L145.034 78.3561L145.279 79.3605Z" fill="#F9DDBF"/>
<path d="M151.535 79.2889L146.813 79.3606L146.567 78.3562L151.289 78.2845L151.535 79.2889Z" fill="#F9DDBF"/>
<path d="M160.856 79.1454L153.62 79.2171L153.436 78.2127L160.611 78.141L160.856 79.1454Z" fill="#F9DDBF"/>
<path d="M147.426 82.015L137.43 82.1585L137.246 81.1541L147.18 81.0106L147.426 82.015Z" fill="#F9DDBF"/>
<path d="M145.218 84.8128L138.043 84.9563L137.859 83.9519L144.973 83.8084L145.218 84.8128Z" fill="#F9DDBF"/>
<path d="M153.436 84.6692L146.261 84.8127L146.077 83.8083L153.252 83.6649L153.436 84.6692Z" fill="#F9DDBF"/>
<path d="M159.384 84.5976L154.969 84.6693L154.723 83.6649L159.2 83.5932L159.384 84.5976Z" fill="#F9DDBF"/>
<path d="M155.398 81.8714L149.265 82.0149L149.02 81.0105L155.214 80.8671L155.398 81.8714Z" fill="#F9DDBF"/>
<path d="M163.8 81.7279L157.667 81.8714L157.422 80.8671L163.554 80.7236L163.8 81.7279Z" fill="#F9DDBF"/>
<path d="M148.039 91.8434L139.576 91.9869L139.392 90.9825L147.794 90.8391L148.039 91.8434Z" fill="#F9DDBF"/>
<path d="M154.233 91.7716L149.572 91.8433L149.327 90.839L154.049 90.6955L154.233 91.7716Z" fill="#F9DDBF"/>
<path d="M163.554 91.5564L156.379 91.6999L156.134 90.6955L163.37 90.552L163.554 91.5564Z" fill="#F9DDBF"/>
<path d="M150.124 94.4976L140.189 94.6411L139.944 93.6368L149.94 93.4933L150.124 94.4976Z" fill="#F9DDBF"/>
<path d="M147.977 97.2956L140.802 97.3673L140.557 96.3629L147.732 96.2912L147.977 97.2956Z" fill="#F9DDBF"/>
<path d="M156.195 97.1521L149.02 97.2239L148.775 96.2195L155.95 96.1478L156.195 97.1521Z" fill="#F9DDBF"/>
<path d="M162.144 97.0086L157.667 97.0804L157.483 96.076L161.898 96.0043L162.144 97.0086Z" fill="#F9DDBF"/>
<path d="M158.157 94.3543L151.964 94.426L151.78 93.4216L157.912 93.3499L158.157 94.3543Z" fill="#F9DDBF"/>
<path d="M166.559 94.2109L160.365 94.2826L160.181 93.2782L166.314 93.2065L166.559 94.2109Z" fill="#F9DDBF"/>
<path d="M151.228 107.196L142.826 107.339L142.581 106.335L150.983 106.191L151.228 107.196Z" fill="#F9DDBF"/>
<path d="M157.483 107.124L152.761 107.196L152.516 106.191L157.238 106.12L157.483 107.124Z" fill="#F9DDBF"/>
<path d="M166.804 106.981L159.568 107.052L159.384 106.048L166.559 105.976L166.804 106.981Z" fill="#F9DDBF"/>
<path d="M153.374 109.85L143.378 109.994L143.194 108.989L153.129 108.846L153.374 109.85Z" fill="#F9DDBF"/>
<path d="M151.166 112.648L143.991 112.792L143.807 111.715L150.921 111.644L151.166 112.648Z" fill="#F9DDBF"/>
<path d="M159.384 112.505L152.209 112.648L152.025 111.644L159.2 111.5L159.384 112.505Z" fill="#F9DDBF"/>
<path d="M165.333 112.433L160.917 112.505L160.672 111.5L165.149 111.429L165.333 112.433Z" fill="#F9DDBF"/>
<path d="M161.346 109.707L155.214 109.85L154.969 108.774L161.163 108.702L161.346 109.707Z" fill="#F9DDBF"/>
<path d="M169.748 109.563L163.616 109.707L163.37 108.702L169.503 108.559L169.748 109.563Z" fill="#F9DDBF"/>
<path d="M154.478 121.615L146.015 121.759L145.831 120.755L154.233 120.611L154.478 121.615Z" fill="#F9DDBF"/>
<path d="M160.672 121.472L156.011 121.544L155.766 120.539L160.488 120.468L160.672 121.472Z" fill="#F9DDBF"/>
<path d="M170.055 121.329L162.819 121.472L162.573 120.468L169.81 120.324L170.055 121.329Z" fill="#F9DDBF"/>
<path d="M156.563 124.198L146.629 124.413L146.383 123.409L156.379 123.194L156.563 124.198Z" fill="#F9DDBF"/>
<path d="M154.417 126.996L147.242 127.139L146.997 126.135L154.172 125.992L154.417 126.996Z" fill="#F9DDBF"/>
<path d="M162.635 126.924L155.46 126.996L155.214 125.992L162.389 125.848L162.635 126.924Z" fill="#F9DDBF"/>
<path d="M168.583 126.781L164.106 126.852L163.922 125.848L168.338 125.776L168.583 126.781Z" fill="#F9DDBF"/>
<path d="M164.597 124.126L158.465 124.198L158.219 123.194L164.352 123.122L164.597 124.126Z" fill="#F9DDBF"/>
<path d="M172.998 123.983L166.805 124.055L166.621 123.05L172.753 122.978L172.998 123.983Z" fill="#F9DDBF"/>
<path d="M259.467 442.151C259.467 442.151 258.056 468.408 253.702 468.767C253.15 468.839 231.686 468.767 231.686 468.767L204.335 468.48C204.335 468.48 204.519 460.732 212.553 459.154C220.587 457.576 233.956 450.976 238.862 438.636C243.89 425.651 259.467 442.151 259.467 442.151Z" fill="#0E2C4F"/>
<path d="M337.84 226.141C338.883 227.146 366.786 262.514 364.517 289.703C363.842 297.666 357.955 303.693 351.148 303.693H317.174C317.174 303.693 282.525 310.938 281.666 319.691C280.869 328.443 273.756 375.72 259.712 442.797C259.712 442.797 249.348 446.958 243.093 444.017C234.814 440.071 233.588 435.91 233.588 435.91C233.588 435.91 241.989 285.614 248.551 274.996C255.174 264.451 323.306 232.957 345.383 229.872C367.399 226.715 337.84 226.141 337.84 226.141Z" fill="#163560"/>
<path d="M140.803 188.693C140.803 188.693 121.117 183.312 116.027 188.693C110.999 194.073 109.404 201.821 109.404 201.821H140.803V188.693Z" fill="#FFB27D"/>
<path d="M211.449 442.151C211.449 442.151 210.039 468.408 205.685 468.767C205.133 468.839 183.669 468.767 183.669 468.767L156.318 468.48C156.318 468.48 156.502 460.732 164.535 459.154C172.569 457.576 185.938 450.976 190.844 438.636C195.873 425.651 211.449 442.151 211.449 442.151Z" fill="#163560"/>
<path d="M363.597 226.141C364.394 226.93 370.404 245.942 374.451 267.464C377.947 286.044 365.866 303.621 349.615 303.621H270.567C270.567 303.621 235.918 310.867 235.059 319.619C234.262 328.371 227.148 375.648 213.105 442.725C213.105 442.725 202.741 445.882 194.585 441.865C190.292 439.712 186.858 434.547 186.858 434.547C186.858 434.547 195.321 285.542 201.944 274.996C208.567 264.451 276.699 232.957 298.776 229.872C320.853 226.715 363.597 226.141 363.597 226.141Z" fill="#2B478B"/>
<path d="M319.811 91.7715L307.546 105.546H286.695C286.695 103.609 286.756 95.4303 286.818 88.041C286.818 87.6106 286.818 87.1801 286.818 86.7497C286.818 85.0997 286.879 83.5214 286.879 82.0866C286.94 77.9974 286.94 75.056 286.94 75.056L292.276 70.7516L304.173 61.2101L310.612 56.0448C310.612 56.1883 311.164 62.9319 311.225 63.8645C312.697 81.2974 319.811 91.7715 319.811 91.7715Z" fill="#FFB27D"/>
<path d="M289.516 89.3323C289.884 89.1171 312.452 77.2799 315.089 78.356C317.726 79.3604 321.037 88.7584 321.037 88.7584L281.36 99.2325C281.299 99.2325 284.426 91.8432 289.516 89.3323Z" fill="#EAC3A2"/>
<path d="M386.962 168.319C382.669 137.327 364.517 114.155 356.79 105.474C351.577 96.2912 320.976 88.7584 320.976 88.7584C320.976 88.7584 295.649 95.4303 281.299 99.2325C281.299 99.2325 258.915 102.102 246.343 126.494C238.555 141.559 216.233 176.066 201.514 177.143C186.858 178.219 140.803 188.693 140.803 188.693V201.965L211.02 204.189C211.878 204.189 212.737 204.117 213.596 203.973C219.667 202.61 245.546 196.584 258.424 188.765C260.509 227.576 262.901 286.834 274.491 296.232C286.757 306.204 372.918 307.495 382.056 292.358C386.717 284.61 381.013 238.624 373.838 194.289C382.73 189.338 388.74 181.304 386.962 168.319Z" fill="#F9DDBF"/>
<path d="M307.362 69.3167L306.319 70.1059C306.319 70.1059 296.507 78.356 286.94 82.0865C287.002 77.9973 287.002 75.0559 287.002 75.0559L292.337 70.7515L307.362 69.3167Z" fill="#EAA16E"/>
<path d="M279.704 75.1995C279.704 75.1995 311.716 79.6474 313.801 56.26C315.825 32.8726 321.344 17.7354 300.984 13.8614C280.624 10.0592 275.841 18.4528 273.572 26.129C271.241 33.7335 271.425 73.4777 279.704 75.1995Z" fill="#FFB27D"/>
<path d="M274.43 23.6899C274.43 23.6899 280.501 49.086 284.855 46.9338C289.21 44.8533 293.257 43.0598 293.809 51.023C294.361 58.9144 289.516 69.3168 303.744 67.595C318.032 65.8732 331.463 19.0985 326.311 11.9245C311.471 -8.80851 253.825 -0.988811 274.43 23.6899Z" fill="#163560"/>
<path d="M251.74 308.714H410.204C416.214 308.714 421.12 302.975 421.12 295.944V287.694H251.74V308.714Z" fill="#77A4E5"/>
<path d="M232.729 308.714H352.62C357.097 308.714 360.653 304.482 360.653 299.316V297.164C360.653 291.927 357.035 287.766 352.62 287.766H232.729C228.252 287.766 224.695 291.999 224.695 297.164V299.316C224.695 304.482 228.252 308.714 232.729 308.714Z" fill="#F99746"/>
<path d="M332.566 460.876H342.746L345.629 308.714H329.991L332.566 460.876Z" fill="#2B478B"/>
<path d="M288.106 460.876H387.514V450.402L336.859 445.021L288.106 450.402V460.876Z" fill="#2B478B"/>
<path d="M397.203 459.226C397.203 453.917 393.524 449.684 389.047 449.684C384.509 449.684 380.891 453.989 380.891 459.226C380.891 464.534 384.57 468.767 389.047 468.767C393.524 468.767 397.203 464.534 397.203 459.226Z" fill="#2B478B"/>
<path d="M297.795 459.226C297.795 453.917 294.116 449.684 289.639 449.684C285.101 449.684 281.483 453.989 281.483 459.226C281.483 464.534 285.162 468.767 289.639 468.767C294.116 468.767 297.795 464.534 297.795 459.226Z" fill="#2B478B"/>
<path d="M291.663 318.686H383.957C388.679 318.686 392.481 314.238 392.481 308.714H283.138C283.138 314.238 286.941 318.686 291.663 318.686Z" fill="#2B478B"/>
<path d="M405.421 308.714C409.713 308.714 413.209 304.625 413.209 299.603V159.494C413.209 133.237 398.552 111.93 380.461 111.93H306.319C288.228 111.93 273.572 133.237 273.572 159.494V308.714H405.421Z" fill="#F99746"/>
<path d="M406.893 308.714C414.742 308.714 421.059 301.253 421.059 292.142V159.494C421.059 133.237 406.402 111.93 388.311 111.93H314.169C296.078 111.93 281.421 133.237 281.421 159.494V308.714H406.893Z" fill="#CC6A27"/>
<path d="M137.368 264.092H79.8453V470.991H137.368V264.092Z" fill="#3C5EA5"/>
<path d="M84.5674 264.092H0V470.991H84.5674V264.092Z" fill="#2B478B"/>
<path d="M137.307 301.684H84.5673V303.764H137.307V301.684Z" fill="#2B478B"/>
<path d="M137.307 345.948H84.5673V348.028H137.307V345.948Z" fill="#2B478B"/>
<path d="M137.307 390.14H84.5673V392.22H137.307V390.14Z" fill="#2B478B"/>
<path d="M137.307 434.404H84.5673V436.484H137.307V434.404Z" fill="#2B478B"/>
<path d="M88.1242 269.759C88.1242 268.827 88.7375 268.109 89.5347 268.109C90.3319 268.109 90.9452 268.827 90.9452 269.759C90.9452 270.692 90.3319 271.409 89.5347 271.409C88.7375 271.409 88.1242 270.692 88.1242 269.759Z" fill="#2B478B"/>
<path d="M95.7286 269.759C95.7286 268.827 96.3418 268.109 97.139 268.109C97.9363 268.109 98.5495 268.827 98.5495 269.759C98.5495 270.692 97.9363 271.409 97.139 271.409C96.3418 271.409 95.7286 270.692 95.7286 269.759Z" fill="#F9DDBF"/>
<path d="M103.333 269.759C103.333 268.827 103.946 268.109 104.743 268.109C105.54 268.109 106.154 268.827 106.154 269.759C106.154 270.692 105.54 271.409 104.743 271.409C103.946 271.409 103.333 270.692 103.333 269.759Z" fill="#F1A34F"/>
<path d="M110.937 269.759C110.937 268.827 111.55 268.109 112.348 268.109C113.145 268.109 113.758 268.827 113.758 269.759C113.758 270.692 113.145 271.409 112.348 271.409C111.55 271.409 110.937 270.692 110.937 269.759Z" fill="#F9DDBF"/>
<path d="M88.1242 356.063C88.1242 355.13 88.7375 354.413 89.5347 354.413C90.3319 354.413 90.9452 355.13 90.9452 356.063C90.9452 356.996 90.3319 357.713 89.5347 357.713C88.7375 357.713 88.1242 356.996 88.1242 356.063Z" fill="#2B478B"/>
<path d="M95.7286 356.063C95.7286 355.13 96.3418 354.413 97.139 354.413C97.9363 354.413 98.5495 355.13 98.5495 356.063C98.5495 356.996 97.9363 357.713 97.139 357.713C96.3418 357.713 95.7286 356.996 95.7286 356.063Z" fill="#F9DDBF"/>
<path d="M103.333 356.063C103.333 355.13 103.946 354.413 104.743 354.413C105.54 354.413 106.154 355.13 106.154 356.063C106.154 356.996 105.54 357.713 104.743 357.713C103.946 357.713 103.333 356.996 103.333 356.063Z" fill="#F1A34F"/>
<path d="M110.937 356.063C110.937 355.13 111.55 354.413 112.348 354.413C113.145 354.413 113.758 355.13 113.758 356.063C113.758 356.996 113.145 357.713 112.348 357.713C111.55 357.713 110.937 356.996 110.937 356.063Z" fill="#F9DDBF"/>
<path d="M88.1242 405.851C88.1242 404.918 88.7375 404.201 89.5347 404.201C90.3319 404.201 90.9452 404.918 90.9452 405.851C90.9452 406.784 90.3319 407.501 89.5347 407.501C88.7375 407.501 88.1242 406.784 88.1242 405.851Z" fill="#2B478B"/>
<path d="M95.7286 405.851C95.7286 404.918 96.3418 404.201 97.139 404.201C97.9363 404.201 98.5495 404.918 98.5495 405.851C98.5495 406.783 97.9363 407.501 97.139 407.501C96.3418 407.501 95.7286 406.783 95.7286 405.851Z" fill="#F9DDBF"/>
<path d="M103.333 405.851C103.333 404.918 103.946 404.201 104.743 404.201C105.54 404.201 106.154 404.918 106.154 405.851C106.154 406.783 105.54 407.501 104.743 407.501C103.946 407.501 103.333 406.783 103.333 405.851Z" fill="#F1A34F"/>
<path d="M110.937 405.851C110.937 404.918 111.55 404.201 112.348 404.201C113.145 404.201 113.758 404.918 113.758 405.851C113.758 406.783 113.145 407.501 112.348 407.501C111.55 407.501 110.937 406.783 110.937 405.851Z" fill="#F9DDBF"/>
<path d="M76.4725 277.579H7.17502V279.66H76.4725V277.579Z" fill="#163560"/>
<path d="M76.4725 283.82H7.17502V285.901H76.4725V283.82Z" fill="#163560"/>
<path d="M76.4725 290.851H7.17502V292.932H76.4725V290.851Z" fill="#163560"/>
</svg>
