<svg width="49" height="49" viewBox="0 0 49 49" fill="none" xmlns="http://www.w3.org/2000/svg">
<path d="M12.5343 0C13.2365 0 13.9375 0 14.6397 0C14.7607 0.0299621 14.8818 0.0755045 15.0052 0.0874893C16.4767 0.230109 17.9218 0.548905 19.2123 1.25601C20.2956 1.84926 21.3261 1.98589 22.5591 1.85405C27.1234 1.36627 31.4611 2.24716 35.5628 4.32053C44.5895 8.88436 49.6019 19.0079 47.717 28.9434C47.6127 29.4947 47.687 29.9477 47.8991 30.4511C49.3586 33.9135 49.3802 37.4107 47.9003 40.8539C44.889 47.8638 36.4711 50.9847 29.605 47.6745C29.1748 47.4671 28.7734 47.4228 28.3193 47.4995C25.9563 47.8974 23.5837 47.895 21.2242 47.5295C16.2969 46.7672 11.964 44.7166 8.41945 41.1967C2.6749 35.4943 0.478456 28.6006 1.76661 20.5983C1.81214 20.3131 1.72347 19.9823 1.62042 19.7007C1.22259 18.6125 0.75406 17.5494 0.393378 16.4504C0.182481 15.8092 0.12736 15.1177 0.00154114 14.4489C0.00154114 13.779 0.00154114 13.109 0.00154114 12.4391C0.0302998 12.2689 0.0530671 12.0987 0.0878172 11.9309C0.274749 11.0464 0.374206 10.1308 0.67018 9.28465C2.31062 4.59019 5.57713 1.63353 10.3846 0.390706C11.088 0.208536 11.8166 0.127039 12.5343 0ZM24.1552 8.54039C23.6675 8.57515 22.7592 8.6171 21.8557 8.70818C19.5646 8.93949 17.3969 9.55191 15.403 10.754C10.6303 13.6328 10.1581 20.6463 15.1765 23.8283C16.7307 24.8134 18.4215 25.4546 20.1794 25.9196C22.5184 26.538 24.8778 27.0725 27.2252 27.6562C28.1611 27.8887 29.031 28.2794 29.7871 28.8906C31.2143 30.0448 31.3856 32.1086 30.0783 33.3993C29.5355 33.9351 28.8573 34.3929 28.1587 34.6985C26.5135 35.4176 24.7568 35.4751 22.9953 35.2666C21.0745 35.0389 19.5598 34.1532 18.606 32.425C18.2825 31.8401 18.0045 31.2301 17.6809 30.6464C17.4497 30.2306 17.2136 29.8075 16.9152 29.4407C16.0249 28.3477 14.8362 28.0697 13.5133 28.3621C12.2647 28.6378 11.3924 29.3904 11.0796 30.656C10.8376 31.634 11.0545 32.6023 11.4235 33.5084C12.4289 35.9761 14.1951 37.7558 16.5534 38.9507C18.5928 39.985 20.7941 40.4033 23.054 40.5243C26.3337 40.7005 29.5499 40.4201 32.5923 39.0454C36.5011 37.28 38.5921 33.959 38.3452 29.8866C38.2194 27.806 37.4262 26.0335 35.848 24.6384C34.6078 23.543 33.1627 22.7796 31.5989 22.3218C28.9424 21.5463 26.2534 20.88 23.5705 20.198C22.2691 19.8673 20.9846 19.5257 19.8414 18.7802C18.4107 17.8478 18.231 16.1783 19.5131 15.0781C19.9972 14.6622 20.5892 14.3267 21.1871 14.0954C22.6478 13.5309 24.1804 13.5632 25.7154 13.7047C27.3774 13.8569 28.6116 14.6886 29.5187 16.0513C29.9597 16.7141 30.3659 17.4008 30.8177 18.0564C31.8302 19.5233 33.6396 19.9368 35.2034 19.0787C36.6844 18.2661 37.2524 16.6481 36.6856 14.8636C36.0434 12.8441 34.6198 11.4887 32.8571 10.458C30.3 8.96586 27.4781 8.55597 24.1552 8.54039Z" fill="white"/>
</svg>
