<svg width="51" height="43" viewBox="0 0 51 43" fill="none" xmlns="http://www.w3.org/2000/svg">
<path d="M50.9999 3.33936C50.7034 4.69393 50.3974 6.0458 50.1115 7.40305C47.9302 17.7346 45.7543 28.0662 43.5744 38.3978C43.4121 39.168 43.2645 39.9436 43.0663 40.7057C42.3308 43.54 40.2892 43.369 38.7052 42.2191C35.4439 39.852 32.2239 37.4283 28.9866 35.0275C28.5051 34.6707 28.009 34.3314 27.5462 33.9504C27.2829 33.7336 27.1232 33.7605 26.8852 33.9934C25.0112 35.8233 23.1212 37.6384 21.2405 39.4629C20.6806 40.0055 20.0448 40.3394 19.1936 40.3071C19.2428 39.5665 19.288 38.8516 19.3386 38.1366C19.5594 35.0047 19.7735 31.8727 20.0156 28.7435C20.0342 28.4957 20.1832 28.1995 20.3667 28.0326C27.4039 21.6152 34.4517 15.2086 41.4982 8.80205C41.5847 8.72396 41.7004 8.66067 41.7509 8.56238C41.864 8.34155 41.9451 8.10323 42.0382 7.87298C41.7948 7.80835 41.5315 7.64946 41.3147 7.70063C40.921 7.79353 40.5273 7.96454 40.1828 8.18267C31.4099 13.7275 22.6424 19.2804 13.8801 24.8441C13.553 25.0528 13.2816 25.077 12.9212 24.9626C9.25695 23.7952 5.58474 22.6533 1.92184 21.4792C1.4417 21.3257 0.964218 21.0887 0.557229 20.7898C-0.111777 20.2983 -0.196898 19.5901 0.398955 19.0246C0.895056 18.5546 1.49224 18.1278 2.12134 17.876C5.77095 16.4151 9.4405 15.0093 13.1061 13.5888C24.5496 9.15349 35.9919 4.71816 47.4381 0.29092C47.8052 0.149539 48.2002 0.0391272 48.5886 0.010851C49.7923 -0.078017 50.5783 0.519822 50.8922 1.70069C50.9215 1.81245 50.964 1.92151 50.9999 2.03193C50.9999 2.46549 50.9999 2.9031 50.9999 3.33936Z" fill="white"/>
</svg>
